HIERARCHY
ROOT Root
{
  OFFSET 0.0 0.0 0.0
  CHANNELS 6 Xposition Yposition Zposition Zrotation Yrotation Xrotation
  JOINT Hips
  {
    OFFSET 0.0 100.0 0.0
    CHANNELS 6 Xposition Yposition Zposition Zrotation Yrotation Xrotation
    JOINT Spine1
    {
      OFFSET 5.003913 -0.037094 -0.013727
      CHANNELS 3 Zrotation Yrotation Xrotation
      JOINT Spine2
      {
        OFFSET 7.125363 -1e-06 0.0
        CHANNELS 3 Zrotation Yrotation Xrotation
        JOINT Chest
        {
          OFFSET 7.594027 1e-06 0.0
          CHANNELS 3 Zrotation Yrotation Xrotation
          JOINT Neck1
          {
            OFFSET 26.313086 -0.460272 -0.181672
            CHANNELS 3 Zrotation Yrotation Xrotation
            JOINT Neck2
            {
              OFFSET 8.045911 0.0 0.0
              CHANNELS 3 Zrotation Yrotation Xrotation
              JOINT Head
              {
                OFFSET 6.432774 0.0 0.0
                CHANNELS 3 Zrotation Yrotation Xrotation
                JOINT HeadEnd
                {
                  OFFSET 16.169773 0.06451 0.00362
                  CHANNELS 3 Zrotation Yrotation Xrotation
                }
                JOINT Jaw
                {
                  OFFSET 0.108741 3.12938 0.002639
                  CHANNELS 3 Zrotation Yrotation Xrotation
                }
                JOINT LeftEye
                {
                  OFFSET 4.45173 8.166359 3.206392
                  CHANNELS 3 Zrotation Yrotation Xrotation
                }
                JOINT RightEye
                {
                  OFFSET 4.436895 8.135758 -3.222429
                  CHANNELS 3 Zrotation Yrotation Xrotation
                }
              }
            }
          }
          JOINT LeftShoulder
          {
            OFFSET 23.218927 5.195579 1.621656
            CHANNELS 3 Zrotation Yrotation Xrotation
            JOINT LeftArm
            {
              OFFSET 15.902118 2e-06 -2e-06
              CHANNELS 3 Zrotation Yrotation Xrotation
              JOINT LeftForeArm
              {
                OFFSET 28.739307 0.0 -1e-06
                CHANNELS 3 Zrotation Yrotation Xrotation
                JOINT LeftHand
                {
                  OFFSET 27.093981 -4e-06 0.0
                  CHANNELS 3 Zrotation Yrotation Xrotation
                  JOINT LeftHandThumb1
                  {
                    OFFSET 2.276781 3.380274 0.83384
                    CHANNELS 3 Zrotation Yrotation Xrotation
                    JOINT LeftHandThumb2
                    {
                      OFFSET 4.705309 -1e-06 -1e-06
                      CHANNELS 3 Zrotation Yrotation Xrotation
                      JOINT LeftHandThumb3
                      {
                        OFFSET 2.798515 0.0 3e-06
                        CHANNELS 3 Zrotation Yrotation Xrotation
                        JOINT LeftHandThumbEnd
                        {
                          OFFSET 3.180793 4e-06 -4e-06
                          CHANNELS 3 Zrotation Yrotation Xrotation
                        }
                      }
                    }
                  }
                  JOINT LeftHandIndex1
                  {
                    OFFSET 3.247786 2.352677 0.137192
                    CHANNELS 3 Zrotation Yrotation Xrotation
                    JOINT LeftHandIndex2
                    {
                      OFFSET 6.367095 1e-06 0.0
                      CHANNELS 3 Zrotation Yrotation Xrotation
                      JOINT LeftHandIndex3
                      {
                        OFFSET 3.662364 0.0 0.0
                        CHANNELS 3 Zrotation Yrotation Xrotation
                        JOINT LeftHandIndex4
                        {
                          OFFSET 2.329242 4e-06 -4e-06
                          CHANNELS 3 Zrotation Yrotation Xrotation
                          JOINT LeftHandIndexEnd
                          {
                            OFFSET 2.767823 1e-06 0.0
                            CHANNELS 3 Zrotation Yrotation Xrotation
                          }
                        }
                      }
                    }
                  }
                  JOINT LeftHandMiddle1
                  {
                    OFFSET 3.163612 0.945023 -0.406112
                    CHANNELS 3 Zrotation Yrotation Xrotation
                    JOINT LeftHandMiddle2
                    {
                      OFFSET 6.276789 3e-06 0.0
                      CHANNELS 3 Zrotation Yrotation Xrotation
                      JOINT LeftHandMiddle3
                      {
                        OFFSET 4.35652 -1e-06 4e-06
                        CHANNELS 3 Zrotation Yrotation Xrotation
                        JOINT LeftHandMiddle4
                        {
                          OFFSET 2.996877 0.0 8e-06
                          CHANNELS 3 Zrotation Yrotation Xrotation
                          JOINT LeftHandMiddleEnd
                          {
                            OFFSET 2.323256 3e-06 -4e-06
                            CHANNELS 3 Zrotation Yrotation Xrotation
                          }
                        }
                      }
                    }
                  }
                  JOINT LeftHandRing1
                  {
                    OFFSET 2.882606 -0.309162 0.107445
                    CHANNELS 3 Zrotation Yrotation Xrotation
                    JOINT LeftHandRing2
                    {
                      OFFSET 6.033198 0.0 4e-06
                      CHANNELS 3 Zrotation Yrotation Xrotation
                      JOINT LeftHandRing3
                      {
                        OFFSET 4.350578 3e-06 0.0
                        CHANNELS 3 Zrotation Yrotation Xrotation
                        JOINT LeftHandRing4
                        {
                          OFFSET 2.651321 2e-06 -7e-06
                          CHANNELS 3 Zrotation Yrotation Xrotation
                          JOINT LeftHandRingEnd
                          {
                            OFFSET 1.937663 1e-06 -4e-06
                            CHANNELS 3 Zrotation Yrotation Xrotation
                          }
                        }
                      }
                    }
                  }
                  JOINT LeftHandPinky1
                  {
                    OFFSET 2.865315 -1.525436 0.575687
                    CHANNELS 3 Zrotation Yrotation Xrotation
                    JOINT LeftHandPinky2
                    {
                      OFFSET 5.54936 1e-06 -8e-06
                      CHANNELS 3 Zrotation Yrotation Xrotation
                      JOINT LeftHandPinky3
                      {
                        OFFSET 3.070974 0.0 -4e-06
                        CHANNELS 3 Zrotation Yrotation Xrotation
                        JOINT LeftHandPinky4
                        {
                          OFFSET 1.549672 1e-06 0.0
                          CHANNELS 3 Zrotation Yrotation Xrotation
                          JOINT LeftHandPinkyEnd
                          {
                            OFFSET 1.952123 0.0 0.0
                            CHANNELS 3 Zrotation Yrotation Xrotation
                          }
                        }
                      }
                    }
                  }
                }
              }
            }
          }
          JOINT RightShoulder
          {
            OFFSET 23.161716 5.296122 -1.380114
            CHANNELS 3 Zrotation Yrotation Xrotation
            JOINT RightArm
            {
              OFFSET -16.027195 -2e-06 1.1e-05
              CHANNELS 3 Zrotation Yrotation Xrotation
              JOINT RightForeArm
              {
                OFFSET -28.736639 4e-06 2e-06
                CHANNELS 3 Zrotation Yrotation Xrotation
                JOINT RightHand
                {
                  OFFSET -27.133619 6e-06 0.0
                  CHANNELS 3 Zrotation Yrotation Xrotation
                  JOINT RightHandThumb1
                  {
                    OFFSET -2.274328 -3.351035 -0.83067
                    CHANNELS 3 Zrotation Yrotation Xrotation
                    JOINT RightHandThumb2
                    {
                      OFFSET -4.703594 -3e-06 2e-06
                      CHANNELS 3 Zrotation Yrotation Xrotation
                      JOINT RightHandThumb3
                      {
                        OFFSET -2.794935 -4e-06 -3e-06
                        CHANNELS 3 Zrotation Yrotation Xrotation
                        JOINT RightHandThumbEnd
                        {
                          OFFSET -3.183852 4e-06 1e-06
                          CHANNELS 3 Zrotation Yrotation Xrotation
                        }
                      }
                    }
                  }
                  JOINT RightHandIndex1
                  {
                    OFFSET -3.253496 -2.33755 -0.127667
                    CHANNELS 3 Zrotation Yrotation Xrotation
                    JOINT RightHandIndex2
                    {
                      OFFSET -6.344434 0.0 0.0
                      CHANNELS 3 Zrotation Yrotation Xrotation
                      JOINT RightHandIndex3
                      {
                        OFFSET -3.654871 0.0 -8e-06
                        CHANNELS 3 Zrotation Yrotation Xrotation
                        JOINT RightHandIndex4
                        {
                          OFFSET -2.327586 -1e-06 0.0
                          CHANNELS 3 Zrotation Yrotation Xrotation
                          JOINT RightHandIndexEnd
                          {
                            OFFSET -2.770001 3e-06 8e-06
                            CHANNELS 3 Zrotation Yrotation Xrotation
                          }
                        }
                      }
                    }
                  }
                  JOINT RightHandMiddle1
                  {
                    OFFSET -3.168223 -0.944764 0.411762
                    CHANNELS 3 Zrotation Yrotation Xrotation
                    JOINT RightHandMiddle2
                    {
                      OFFSET -6.266691 -1e-06 -4e-06
                      CHANNELS 3 Zrotation Yrotation Xrotation
                      JOINT RightHandMiddle3
                      {
                        OFFSET -4.348901 0.0 0.0
                        CHANNELS 3 Zrotation Yrotation Xrotation
                        JOINT RightHandMiddle4
                        {
                          OFFSET -3.00024 2e-06 -4e-06
                          CHANNELS 3 Zrotation Yrotation Xrotation
                          JOINT RightHandMiddleEnd
                          {
                            OFFSET -2.321477 -4e-06 -4e-06
                            CHANNELS 3 Zrotation Yrotation Xrotation
                          }
                        }
                      }
                    }
                  }
                  JOINT RightHandRing1
                  {
                    OFFSET -2.885654 0.293261 -0.119232
                    CHANNELS 3 Zrotation Yrotation Xrotation
                    JOINT RightHandRing2
                    {
                      OFFSET -6.032835 -1e-06 -4e-06
                      CHANNELS 3 Zrotation Yrotation Xrotation
                      JOINT RightHandRing3
                      {
                        OFFSET -4.33881 0.0 -4e-06
                        CHANNELS 3 Zrotation Yrotation Xrotation
                        JOINT RightHandRing4
                        {
                          OFFSET -2.654903 -4e-06 -4e-06
                          CHANNELS 3 Zrotation Yrotation Xrotation
                          JOINT RightHandRingEnd
                          {
                            OFFSET -1.935122 0.0 4e-06
                            CHANNELS 3 Zrotation Yrotation Xrotation
                          }
                        }
                      }
                    }
                  }
                  JOINT RightHandPinky1
                  {
                    OFFSET -2.866241 1.503904 -0.60527
                    CHANNELS 3 Zrotation Yrotation Xrotation
                    JOINT RightHandPinky2
                    {
                      OFFSET -5.553177 -2e-06 0.0
                      CHANNELS 3 Zrotation Yrotation Xrotation
                      JOINT RightHandPinky3
                      {
                        OFFSET -3.062664 -1e-06 -4e-06
                        CHANNELS 3 Zrotation Yrotation Xrotation
                        JOINT RightHandPinky4
                        {
                          OFFSET -1.546529 2e-06 4e-06
                          CHANNELS 3 Zrotation Yrotation Xrotation
                          JOINT RightHandPinkyEnd
                          {
                            OFFSET -1.952341 0.0 -4e-06
                            CHANNELS 3 Zrotation Yrotation Xrotation
                          }
                        }
                      }
                    }
                  }
                }
              }
            }
          }
        }
      }
    }
    JOINT LeftLeg
    {
      OFFSET -8.443107 2.567604 10.043214
      CHANNELS 3 Zrotation Yrotation Xrotation
      JOINT LeftShin
      {
        OFFSET 43.229198 1e-06 -1e-06
        CHANNELS 3 Zrotation Yrotation Xrotation
        JOINT LeftFoot
        {
          OFFSET 42.298611 1e-06 1e-06
          CHANNELS 3 Zrotation Yrotation Xrotation
          JOINT LeftToeBase
          {
            OFFSET 14.165858 1e-06 0.0
            CHANNELS 3 Zrotation Yrotation Xrotation
            JOINT LeftToeEnd
            {
              OFFSET 6.7141 -0.234461 0.0
              CHANNELS 3 Zrotation Yrotation Xrotation
            }
          }
        }
      }
    }
    JOINT RightLeg
    {
      OFFSET -8.303923 2.592729 -10.047278
      CHANNELS 3 Zrotation Yrotation Xrotation
      JOINT RightShin
      {
        OFFSET -43.369682 0.0 1e-06
        CHANNELS 3 Zrotation Yrotation Xrotation
        JOINT RightFoot
        {
          OFFSET -42.260784 4e-06 2e-06
          CHANNELS 3 Zrotation Yrotation Xrotation
          JOINT RightToeBase
          {
            OFFSET -14.222245 -2e-06 -1e-06
            CHANNELS 3 Zrotation Yrotation Xrotation
            JOINT RightToeEnd
            {
              OFFSET -6.660062 0.232574 -2e-06
              CHANNELS 3 Zrotation Yrotation Xrotation
            }
          }
        }
      }
    }
  }
}
MOTION
Frames: 4
Frame Time: 0.03333333333333333
0.0 0.0 0.0 0.0 -0.0 0.0 3.400279 49.216267 -0.824111 97.095367 -60.003109 85.047997 12.596218 1.169971 -0.148312 -5.269513 0.785465 -2.042555 18.618282 4.802867 -3.699047 20.581789 2.485121 3.721407 -2.715206 -0.986926 5.26277 -26.224146 -0.176683 5.059968 6e-06 -0.0 -1e-06 -0.236932 0.27501 0.009708 -0.181949 0.345541 0.064736 -0.245846 0.203337 -0.035205 5.742827 -62.768238 -5.504212 57.367676 5.734586 -57.61311 15.087748 -1.948762 -0.352847 19.437351 56.438591 16.293835 17.636639 -26.322741 52.411201 -19.466665 -14.395598 29.410389 0.0 -8.774822 -3e-06 15.242522 -18.125418 7.035421 -0.609777 -1.795654 -3.889327 -4.807089 -11.046812 -2.93785 4e-06 -20.976021 0.0 -5.01997 -25.03356 -4.031882 5e-06 -2e-06 0.0 -10.634537 -5.686971 -3.565587 10.573275 -17.922951 -3.1139 2e-06 -13.821211 1e-06 -0.501777 -31.181505 -4.027016 -9.776192 -57.921001 5.917478 -13.982716 -7.150199 -2.875044 13.772731 -8.401495 -3.218241 0.347733 -34.211559 0.771656 -0.963029 -17.733376 2.62102 -0.0 0.0 0.0 -17.346424 -20.095224 -4.201781 21.757561 -1.638374 3.866429 1e-06 -6.338825 1e-06 -1.69759 -22.591751 -6.194007 -0.0 -4e-06 -2e-06 158.331512 -67.178055 19.137613 99.699791 -17.142775 -42.865215 10.727356 0.747502 0.373285 74.424156 75.907776 75.147934 22.182117 -20.375898 49.933319 -16.701815 -16.743525 28.476534 -1e-06 -12.690605 -1e-06 16.024715 -17.848738 2.946712 -0.10592 -1.513856 -4.275881 -5.039038 -5.612871 -2.953556 4e-06 -11.020527 -3e-06 -6.111298 -15.895338 -3.840469 -1e-06 0.0 -1e-06 -10.283372 -5.680288 -4.341838 11.028295 -11.302404 -2.372632 -1.38427 -14.238585 -6.32012 -0.625441 -26.924191 -3.827602 -4.418992 -49.202667 -3.56423 -13.708526 -7.363477 -3.720938 18.141153 -14.052739 -3.242675 6e-06 -18.787271 -2e-06 -0.429711 -8.456047 2.555505 -0.0 -1e-06 1e-06 -15.923536 -20.094484 -5.473584 30.419214 -7.190825 1.735927 3e-06 -8.162922 1e-06 -1.861902 -22.861473 -6.167943 0.0 -2e-06 -1e-06 122.434219 7.214252 2.479886 103.027176 1.395683 0.116471 -61.214882 13.723658 -12.847303 -9.485057 1.19 2.083879 -0.999997 0.0 -1e-06 -66.400085 -19.292139 1.984564 119.317665 -1.867297 0.375174 -74.572563 15.005627 -16.32316 -7.604488 0.441484 2.200881 -1.000002 -0.0 -1e-06 
0.0 0.0 0.0 0.0 -0.0 0.0 3.841659 49.260624 0.218025 96.15596 -59.963638 85.423462 12.615287 1.430378 -0.038022 -5.180483 0.848258 -2.13286 18.962086 5.183595 -3.617835 20.572598 2.701773 3.410365 -2.685588 -0.916369 5.377657 -25.892532 -0.044973 5.585006 6e-06 -1e-06 -0.0 -0.239614 0.168096 0.025838 -0.141154 0.2358 0.079462 -0.227272 0.101173 -0.01798 6.313875 -62.546207 -5.955743 58.895702 7.186495 -56.948799 12.727221 -1.730745 -0.193747 16.840813 56.092438 14.770414 17.636631 -26.322729 52.411186 -19.46666 -14.395598 29.410385 -1e-06 -8.774822 -1e-06 15.37719 -18.368618 6.8825 -0.609776 -1.795653 -3.889328 -4.80709 -11.046811 -2.937848 3e-06 -20.976019 -0.0 -5.01997 -25.03356 -4.031881 6e-06 -1e-06 1e-06 -10.634535 -5.686971 -3.565586 10.573272 -17.922949 -3.113901 2e-06 -13.82121 1e-06 -0.501778 -31.181505 -4.027016 -10.025691 -58.054848 6.111478 -13.982714 -7.150198 -2.875041 13.77273 -8.401491 -3.218241 0.347733 -34.211555 0.771655 -0.963029 -17.73337 2.621019 -1e-06 -1e-06 0.0 -17.346416 -20.095215 -4.201779 21.757557 -1.638375 3.866427 1e-06 -6.338824 0.0 -1.69759 -22.591747 -6.194007 -0.0 -3e-06 -2e-06 157.507355 -67.411583 20.467667 99.743927 -16.25156 -41.351475 10.241749 0.654922 0.329154 72.444 76.451035 71.947372 22.182121 -20.375891 49.933319 -16.701817 -16.743525 28.47653 -1e-06 -12.690603 -1e-06 16.064583 -17.779499 2.874961 -0.105921 -1.513858 -4.275883 -5.039038 -5.612872 -2.953557 5e-06 -11.020528 -2e-06 -6.111297 -15.895338 -3.840473 -2e-06 0.0 -2e-06 -10.283373 -5.68029 -4.341838 11.028296 -11.302409 -2.372633 -1.384269 -14.238589 -6.320122 -0.625437 -26.924194 -3.827605 -4.309783 -49.13335 -3.591539 -13.708527 -7.363478 -3.720939 18.14115 -14.052741 -3.242675 5e-06 -18.787277 -3e-06 -0.429711 -8.456046 2.555502 1e-06 0.0 2e-06 -15.923536 -20.094492 -5.473584 30.419214 -7.190826 1.735927 4e-06 -8.162924 -0.0 -1.861902 -22.861481 -6.167946 0.0 -2e-06 -1e-06 123.871071 7.380036 2.968299 101.687386 1.476595 0.05175 -61.273975 13.140426 -12.998169 -9.255187 1.1621 2.111989 -0.999997 0.0 -1e-06 -70.846626 -18.468044 3.947845 123.424141 -1.249386 0.451941 -75.966782 16.292927 -14.286066 -7.870669 0.524557 2.05865 -1.000002 -0.0 -1e-06 
0.0 0.0 0.0 0.0 -0.0 0.0 4.177357 49.338375 1.460444 94.954491 -59.48737 86.23436 12.740747 1.766031 0.090072 -5.045379 0.887902 -2.215212 19.554333 5.662116 -3.569345 20.825331 3.057167 3.096213 -2.678518 -0.989335 5.361609 -25.494171 0.070142 5.954767 5e-06 1e-06 1e-06 -0.241306 0.062212 0.043967 -0.191294 0.127135 0.08732 -0.27026 -0.002413 0.005049 6.337344 -62.265965 -6.010807 60.754364 7.704137 -56.438869 11.073344 -1.508904 -0.133854 14.379693 56.71899 12.889738 17.636633 -26.322737 52.411201 -19.466665 -14.395602 29.410395 0.0 -8.774825 -2e-06 15.600698 -18.535297 6.743109 -0.609776 -1.795654 -3.889329 -4.80709 -11.046813 -2.93785 3e-06 -20.976021 1e-06 -5.019972 -25.033564 -4.031881 6e-06 0.0 -2e-06 -10.634537 -5.686972 -3.565588 10.573277 -17.922955 -3.113901 2e-06 -13.821213 1e-06 -0.501778 -31.181511 -4.027016 -10.240869 -58.284027 6.25004 -13.982716 -7.150199 -2.875043 13.772731 -8.401495 -3.218242 0.347732 -34.211559 0.771656 -0.963029 -17.73337 2.62102 -0.0 -0.0 -0.0 -17.346422 -20.095222 -4.201782 21.757561 -1.638375 3.866428 1e-06 -6.338824 1e-06 -1.69759 -22.591753 -6.194007 0.0 -4e-06 -2e-06 156.84111 -67.926682 21.895094 99.397751 -15.353347 -39.823025 9.941416 0.408767 0.277166 72.258553 76.997444 71.169395 22.182121 -20.375895 49.933304 -16.701809 -16.74353 28.476522 -1e-06 -12.690603 -2e-06 16.105291 -17.737396 2.837692 -0.10592 -1.513857 -4.275881 -5.03904 -5.61287 -2.953555 4e-06 -11.020525 -0.0 -6.1113 -15.895332 -3.840467 -0.0 -0.0 0.0 -10.283372 -5.680288 -4.341837 11.028294 -11.302405 -2.372633 -1.384271 -14.238581 -6.320116 -0.625441 -26.924187 -3.8276 -4.171099 -49.081863 -3.641651 -13.708528 -7.363475 -3.720938 18.141151 -14.05274 -3.242672 4e-06 -18.78727 0.0 -0.429711 -8.456041 2.555504 0.0 -1e-06 1e-06 -15.923539 -20.094482 -5.473582 30.419218 -7.190827 1.735928 2e-06 -8.162924 1e-06 -1.861905 -22.861475 -6.16794 -0.0 -3e-06 1e-06 126.083023 7.459496 3.699311 100.070694 1.568725 -0.006371 -61.586361 12.219126 -13.12355 -9.550769 1.157519 2.130401 -0.999999 0.0 -1e-06 -75.286606 -17.337519 5.899762 127.255753 -0.795472 0.499831 -77.5466 18.127697 -12.097507 -8.296726 0.591123 1.916547 -1.000002 0.0 0.0 
0.0 0.0 0.0 0.0 -0.0 0.0 4.297947 49.356777 2.710159 93.677589 -58.771095 87.468391 12.877285 2.195185 0.198355 -4.905519 0.924832 -2.317962 20.235037 6.166366 -3.574294 21.268757 3.481682 2.840282 -2.67167 -1.101867 5.284554 -25.150972 0.109203 6.15261 6e-06 0.0 -1e-06 -0.24741 -0.003798 0.058499 -0.262419 0.058086 0.09223 -0.323786 -0.066494 0.024665 5.789091 -62.132729 -5.494892 62.718201 7.427055 -56.7244 10.437653 -1.406364 -0.128285 13.616359 58.129768 12.800208 17.636635 -26.322729 52.411201 -19.466665 -14.3956 29.410393 -2e-06 -8.774821 -2e-06 15.819215 -18.617712 6.649969 -0.609776 -1.795654 -3.889329 -4.807089 -11.046813 -2.93785 5e-06 -20.976021 -1e-06 -5.019969 -25.033562 -4.031883 6e-06 -0.0 0.0 -10.634537 -5.686971 -3.565588 10.573277 -17.922956 -3.113903 3e-06 -13.821212 -0.0 -0.501774 -31.181505 -4.027018 -10.474222 -58.508186 6.380467 -13.982716 -7.150199 -2.875043 13.772732 -8.401495 -3.218242 0.347736 -34.211555 0.771653 -0.963027 -17.73337 2.621019 -0.0 -0.0 0.0 -17.346422 -20.095221 -4.201783 21.757565 -1.638376 3.866428 2e-06 -6.338823 0.0 -1.697587 -22.591747 -6.19401 -0.0 -8e-06 -2e-06 156.290268 -68.559433 23.233345 98.866905 -14.826416 -38.479778 9.84275 0.193074 0.24837 73.347252 77.638359 72.153664 22.182112 -20.375883 49.933308 -16.701807 -16.743525 28.476522 -1e-06 -12.690601 -1e-06 16.169436 -17.782091 2.799901 -0.10592 -1.513856 -4.275881 -5.039039 -5.612867 -2.953557 6e-06 -11.020523 -2e-06 -6.111297 -15.895329 -3.84047 1e-06 -1e-06 1e-06 -10.283369 -5.680286 -4.341839 11.028294 -11.302402 -2.372633 -1.38427 -14.238577 -6.320117 -0.625436 -26.924179 -3.827601 -4.085449 -49.14222 -3.708413 -13.708522 -7.363473 -3.72094 18.141148 -14.052734 -3.242674 5e-06 -18.787266 -1e-06 -0.42971 -8.45604 2.555503 1e-06 0.0 1e-06 -15.923531 -20.094479 -5.473588 30.419205 -7.190825 1.735928 4e-06 -8.162919 1e-06 -1.861902 -22.861464 -6.16794 0.0 -3e-06 -0.0 128.578186 7.511528 4.735158 98.458046 1.652703 -0.076245 -61.881855 11.415821 -13.062105 -10.125029 1.170469 2.130991 -0.999998 0.0 -0.0 -79.109344 -16.309666 7.479112 130.086365 -0.484186 0.503172 -78.810104 19.619005 -10.232906 -8.80612 0.637694 1.778849 -1.000002 -0.0 -1e-06 
